<svg version="1.1" xmlns="http://www.w3.org/2000/svg" xmlns:xlink="http://www.w3.org/1999/xlink" width="101.562" height="96.3379">
 <g>
  <rect height="96.3379" opacity="0" width="101.562" x="0" y="0"/>
  <path fill="#000" d="M5.51758 94.4336C6.73828 94.4336 8.00781 93.9941 9.57031 93.1152L34.4238 79.7363L61.4258 94.873C63.1836 95.8496 65.0879 96.3379 66.8945 96.3379C68.6035 96.3379 70.3125 95.8984 71.7773 95.0684L97.3145 80.5664C100.244 78.9551 101.562 76.6113 101.562 73.3398L101.562 7.56836C101.562 3.95508 99.5605 1.95312 96.0449 1.95312C94.8242 1.95312 93.5547 2.34375 91.9434 3.22266L66.0645 17.627L39.5508 1.36719C38.0371 0.488281 36.3281 0 34.6191 0C32.8613 0 31.1035 0.488281 29.5898 1.36719L4.19922 15.8203C1.31836 17.4805 0 19.8242 0 23.0957L0 88.7695C0 92.3828 2.00195 94.4336 5.51758 94.4336ZM31.25 71.9727L9.22852 84.082C8.98438 84.1797 8.74023 84.3262 8.49609 84.3262C8.10547 84.3262 7.86133 84.0332 7.86133 83.5449L7.86133 25C7.86133 23.8281 8.30078 22.998 9.47266 22.3145L29.4922 10.5957C30.127 10.2539 30.6641 9.96094 31.25 9.61914ZM39.1113 72.7539L39.1113 10.6445C39.5996 10.9375 40.1855 11.2305 40.6738 11.5234L62.4512 24.8047L62.4512 85.8398C61.7676 85.4492 61.0352 85.1074 60.3027 84.7168ZM70.3125 86.7188L70.3125 24.3164L92.334 12.3047C92.5781 12.1582 92.8223 12.0605 93.0176 12.0605C93.457 12.0605 93.7012 12.3535 93.7012 12.8418L93.7012 71.3867C93.7012 72.6074 93.2129 73.4375 92.0898 74.1211L72.5098 85.498C71.7773 85.9375 71.0449 86.377 70.3125 86.7188Z"/>
 </g>
</svg>
