<svg version="1.1" xmlns="http://www.w3.org/2000/svg" xmlns:xlink="http://www.w3.org/1999/xlink" width="76.25" height="101.812">
 <g>
  <rect height="101.812" opacity="0" width="76.25" x="0" y="0"/>
  <path d="M8.3125 101.812L22.5625 101.812C28 101.812 30.875 98.9375 30.875 93.4375L30.875 8.3125C30.875 2.625 28 0 22.5625 0L8.3125 0C2.875 0 0 2.875 0 8.3125L0 93.4375C0 98.9375 2.875 101.812 8.3125 101.812ZM53.75 101.812L67.9375 101.812C73.4375 101.812 76.25 98.9375 76.25 93.4375L76.25 8.3125C76.25 2.625 73.4375 0 67.9375 0L53.75 0C48.25 0 45.375 2.875 45.375 8.3125L45.375 93.4375C45.375 98.9375 48.25 101.812 53.75 101.812Z" fill="#000000" fill-opacity="0.85"/>
 </g>
</svg>