<svg version="1.1" xmlns="http://www.w3.org/2000/svg" xmlns:xlink="http://www.w3.org/1999/xlink" width="90.0391" height="89.6973">
 <g>
  <rect height="89.6973" opacity="0" width="90.0391" x="0" y="0"/>
  <path d="M84.3262 5.85938C79.3457 0.878906 72.3145 0.0976562 63.9648 0.0976562L25.9277 0.0976562C17.7246 0.0976562 10.6934 0.878906 5.71289 5.85938C0.732422 10.8398 0 17.8223 0 25.9766L0 63.6719C0 72.0215 0.732422 78.9551 5.71289 83.9355C10.6934 88.916 17.7246 89.6973 26.0254 89.6973L63.9648 89.6973C72.3145 89.6973 79.3457 88.916 84.3262 83.9355C89.3066 78.9551 90.0391 72.0215 90.0391 63.6719L90.0391 26.123C90.0391 17.7734 89.3066 10.791 84.3262 5.85938ZM82.1777 24.7559L82.1777 64.9902C82.1777 70.0684 81.543 75.2441 78.5645 78.2227C75.6348 81.1523 70.3613 81.8359 65.332 81.8359L24.707 81.8359C19.6777 81.8359 14.4043 81.1523 11.4258 78.2227C8.49609 75.2441 7.86133 70.0684 7.86133 64.9902L7.86133 24.9023C7.86133 19.7754 8.49609 14.502 11.4258 11.5723C14.4043 8.59375 19.7266 7.95898 24.8535 7.95898L65.332 7.95898C70.3613 7.95898 75.6348 8.64258 78.5645 11.5723C81.543 14.5508 82.1777 19.7266 82.1777 24.7559ZM22.4121 44.8242C22.4121 47.2168 24.1211 48.8281 26.6113 48.8281L40.9668 48.8281L40.9668 63.2324C40.9668 65.6738 42.5781 67.3828 44.9707 67.3828C47.4121 67.3828 49.1211 65.7227 49.1211 63.2324L49.1211 48.8281L63.5254 48.8281C65.9668 48.8281 67.6758 47.2168 67.6758 44.8242C67.6758 42.3828 65.9668 40.6738 63.5254 40.6738L49.1211 40.6738L49.1211 26.3184C49.1211 23.8281 47.4121 22.1191 44.9707 22.1191C42.5781 22.1191 40.9668 23.8281 40.9668 26.3184L40.9668 40.6738L26.6113 40.6738C24.0723 40.6738 22.4121 42.3828 22.4121 44.8242Z" fill="#000000"/>
 </g>
</svg>
